# xmcd
#
# Track frame offsets: 
#        150
#        20413
#        37385
#        67807
#        89690
#        109385
#        129218
#        148599
#        170952
#        185399
#        214971
#        240393
#
# Disc length: 3509 seconds
#
# Revision: 0
# Processed by: cddbd v1.5.2PL0 Copyright (c) Steve Scherf et al.
# Submitted via: ExactAudioCopyFreeDBPlugin 1.0
#
DISCID=b20db30c
DTITLE=Various Artist - Tình khúc Trịnh Công Sơn
DYEAR=2001
DGENRE=Vietnamese
TTITLE0=Hồng Nhung - Lời thiên thu gọi
TTITLE1=Nhóm MTV - Đồng dao 2000
TTITLE2=Hồng Hải - Một ngày như mọi ngày
TTITLE3=Mỹ Lệ - Những con mắt trần gian
TTITLE4=Quang Minh - Đời gọi em biết bao lần
TTITLE5=Tam ca Áo Trắng - Níu tay nghìn trùng
TTITLE6=Mỹ Tâm - Lời buồn thánh
TTITLE7=Mỹ Hạnh - Chìm dưới cơn mưa
TTITLE8=Nguyệt Ánh - Chuyện đóa quỳnh hương
TTITLE9=Hồng Ngọc - Tình xót xa vừa
TTITLE10=Bảo Phúc - Tiến thoái lưỡng nan
TTITLE11=Bích Thu - Biển nghìn thu ở lại
EXTD=
EXTT0=
EXTT1=
EXTT2=
EXTT3=
EXTT4=
EXTT5=
EXTT6=
EXTT7=
EXTT8=
EXTT9=
EXTT10=
EXTT11=
PLAYORDER=
